<!-- Generator: Adobe Illustrator 21.0.2, SVG Export Plug-In  -->
<svg version="1.1" baseProfile="tiny"
	 xmlns="http://www.w3.org/2000/svg" xmlns:xlink="http://www.w3.org/1999/xlink" xmlns:a="http://ns.adobe.com/AdobeSVGViewerExtensions/3.0/"
	 x="0px" y="0px" width="57.1px" height="57.1px" viewBox="0 0 57.1 57.1" xml:space="preserve">
<defs>
</defs>
<g>
	<circle fill="#FFFFFF" cx="28.6" cy="28.6" r="28.6"/>
	<g>
		<path fill="#3397DA" d="M28.6,57.1c-1.9,0-3.8-0.2-5.8-0.6C15.4,55,9,50.7,4.8,44.3s-5.7-14-4.2-21.5C2.1,15.4,6.4,9,12.8,4.8l0,0
			c6.4-4.2,14-5.7,21.5-4.2c7.5,1.5,13.9,5.9,18.1,12.2c4.2,6.4,5.7,14,4.2,21.5c-1.5,7.5-5.9,13.9-12.2,18.1
			C39.6,55.5,34.2,57.1,28.6,57.1z M28.5,5c-4.6,0-9.1,1.3-13,3.9l0,0c-5.3,3.5-8.8,8.8-10.1,15c-1.3,6.2,0,12.5,3.4,17.7
			c3.5,5.3,8.8,8.8,15,10.1c6.2,1.3,12.5,0,17.7-3.4c5.3-3.5,8.8-8.8,10.1-15c1.3-6.2,0-12.5-3.4-17.7c-3.5-5.3-8.8-8.8-15-10.1
			C31.7,5.1,30.1,5,28.5,5z"/>
	</g>
	<g>
		
			<ellipse transform="matrix(0.8339 -0.5519 0.5519 0.8339 -11.0226 20.5127)" fill="#3397DA" cx="28.6" cy="28.6" rx="12.1" ry="12.1"/>
	</g>
</g>
</svg>
