<?xml version="1.0" encoding="utf-8"?>
<!-- Generator: Adobe Illustrator 21.0.2, SVG Export Plug-In . SVG Version: 6.00 Build 0)  -->
<svg version="1.1" baseProfile="tiny" xmlns="http://www.w3.org/2000/svg" xmlns:xlink="http://www.w3.org/1999/xlink" x="0px"
	 y="0px" viewBox="0 0 680 280" xml:space="preserve">
<g id="Layer_1">
</g>
<g id="Layer_2">
	<g>
		<g>
			<path fill="#FFC101" d="M296.1,221.3h-9.6l-1.8,5H283l7.6-20.7h1.4l7.6,20.7h-1.7L296.1,221.3z M287,219.9h8.6l-4.3-12.2
				L287,219.9z"/>
			<path fill="#FFC101" d="M314.8,225.3c-0.7,0.7-1.9,1.2-3.4,1.2c-1.6,0-2.9-0.3-4.1-2v8.5h-1.5v-20.7h1.5v1.8c1.2-1.6,2.6-2,4.1-2
				c1.5,0,2.7,0.5,3.4,1.2c1.4,1.4,1.8,3.7,1.8,5.9C316.6,221.5,316.2,223.8,314.8,225.3z M311.2,213.4c-3.4,0-3.9,3-3.9,5.9
				c0,2.9,0.5,5.9,3.9,5.9s3.9-3,3.9-5.9C315.1,216.4,314.6,213.4,311.2,213.4z"/>
			<path fill="#FFC101" d="M329.6,213.4c-2.4,0-3.7,2-3.7,4.2v8.6h-1.5v-14h1.5v1.9c0.8-1.3,2.4-2,4.1-2c1.4,0,2.3,0.3,3.4,1.3
				l-1.1,1.1C331.4,213.7,330.7,213.4,329.6,213.4z"/>
			<path fill="#FFC101" d="M338.9,205.6h1.8v1.8h-1.8V205.6z M339.1,212.3h1.5v14h-1.5V212.3z"/>
			<path fill="#FFC101" d="M349,222.7v-17h1.5v17c0,1.6,0.5,2.3,2.1,2.3h1v1.3h-1.3C350.1,226.3,349,224.9,349,222.7z"/>
			<path fill="#FFC101" d="M369.9,225l8.3-10.9c0.8-1,1.2-2,1.2-3.2c0-2.5-1.5-4.1-4-4.1c-2.1,0-4,1.2-4,4.1h-1.5
				c0-3.1,2.1-5.4,5.5-5.4c3.3,0,5.5,2.2,5.5,5.4c0,1.5-0.4,2.6-1.4,4l-7.7,10.1h9.2v1.3h-10.9V225z"/>
			<path fill="#FFC101" d="M396.5,226.3H395v-3.4h-8.2v-1.3l7.6-16h1.6l-7.6,16h6.6V215h1.5v6.6h2.8v1.3h-2.8V226.3z"/>
			<path fill="#FFC101" d="M405.8,218h7.6v1.4h-7.6V218z"/>
			<path fill="#FFC101" d="M420.8,225l8.3-10.9c0.8-1,1.2-2,1.2-3.2c0-2.5-1.5-4.1-4-4.1c-2.1,0-4,1.2-4,4.1h-1.5
				c0-3.1,2.1-5.4,5.5-5.4c3.3,0,5.5,2.2,5.5,5.4c0,1.5-0.4,2.6-1.4,4l-7.7,10.1h9.2v1.3h-10.9V225z"/>
			<path fill="#FFC101" d="M448,225c-1,1-2.3,1.5-4,1.5c-1.7,0-3.1-0.5-4-1.4c-0.8-0.8-1.3-1.9-1.4-3.4h1.5c0.3,2.2,1.5,3.5,3.9,3.5
				c1.1,0,2.2-0.4,2.8-1c1.2-1.2,1.2-3,1.2-4.6c0-2.6-0.5-5.5-3.9-5.5c-1.9,0-3.3,0.8-3.7,2.2h-1.3v-10.6h9.9v1.3h-8.6v7.3
				c0.9-1,2.2-1.5,3.9-1.5c1.5,0,2.6,0.4,3.5,1.2c1.5,1.5,1.7,3.6,1.7,5.6C449.6,221.5,449.4,223.5,448,225z"/>
			<path fill="#FFC101" d="M457,224.3h2v3.9l-2,2V224.3z"/>
			<path fill="#FFC101" d="M477,225l8.3-10.9c0.8-1,1.2-2,1.2-3.2c0-2.5-1.5-4.1-4-4.1c-2.1,0-4,1.2-4,4.1h-1.5
				c0-3.1,2.1-5.4,5.5-5.4c3.3,0,5.5,2.2,5.5,5.4c0,1.5-0.4,2.6-1.4,4l-7.7,10.1h9.2v1.3H477V225z"/>
			<path fill="#FFC101" d="M500.2,226.5c-3.2,0-5.4-2.3-5.4-5.5v-10c0-3.2,2.3-5.5,5.4-5.5c3.2,0,5.4,2.3,5.4,5.5v10
				C505.6,224.2,503.4,226.5,500.2,226.5z M500.2,206.8c-2.6,0-3.9,1.9-3.9,4.4v9.7c0,2.4,1.4,4.4,3.9,4.4c2.6,0,3.9-1.9,3.9-4.4
				v-9.7C504.2,208.7,502.8,206.8,500.2,206.8z"/>
			<path fill="#FFC101" d="M518.2,207.3l-3.7,3.3v-1.8l3.7-3.2h1.5v20.7h-1.5V207.3z"/>
			<path fill="#FFC101" d="M532.9,226.3l7.3-19.3h-7.8v3.2h-1.5v-4.6h10.8v1.3l-7.3,19.3H532.9z"/>
			<path fill="#FFC101" d="M548.9,224.3h2v3.9l-2,2V224.3z"/>
			<path fill="#FFC101" d="M577.3,216.8h-5.7v9.5H570v-20.7h7.9c3.4,0,5.9,1.9,5.9,5.5c0,3.1-1.9,5.1-4.8,5.6l5,9.5h-1.8
				L577.3,216.8z M577.7,207h-6.1v8.4h6.1c2.7,0,4.6-1.3,4.6-4.2S580.4,207,577.7,207z"/>
			<path fill="#FFC101" d="M591.4,205.6h1.8v1.8h-1.8V205.6z M591.6,212.3h1.5v14h-1.5V212.3z"/>
			<path fill="#FFC101" d="M605.9,233.1c-2.1,0-3.2-0.6-4.6-1.9l1-1c1.1,1,1.9,1.5,3.6,1.5c2.9,0,4.2-2.1,4.2-4.8v-2.5
				c-1.2,1.6-2.6,2-4.1,2c-1.5,0-2.7-0.5-3.4-1.2c-1.4-1.4-1.8-3.7-1.8-5.9c0-2.2,0.4-4.5,1.8-5.9c0.7-0.7,1.9-1.2,3.4-1.2
				c1.6,0,2.9,0.3,4.1,2v-1.8h1.5v14.8C611.7,230.6,609.6,233.1,605.9,233.1z M606.2,213.4c-3.4,0-3.9,3-3.9,5.9
				c0,2.9,0.5,5.9,3.9,5.9s3.9-3,3.9-5.9C610.2,216.4,609.7,213.4,606.2,213.4z"/>
			<path fill="#FFC101" d="M628.4,224.9c-1.2,1.2-2.3,1.6-4.3,1.6c-2.1,0-3.2-0.3-4.1-1.3c-0.7-0.7-1-1.7-1-2.7c0-2.6,1.8-4,4.9-4
				h4.5v-1.6c0-2.2-1.1-3.4-3.9-3.4c-2,0-3,0.5-3.9,1.8l-1.1-0.9c1.2-1.7,2.6-2.1,4.9-2.1c3.7,0,5.4,1.7,5.4,4.6v9.6h-1.5V224.9z
				 M624,219.6c-2.4,0-3.6,0.9-3.6,2.8c0,1.9,1.1,2.7,3.7,2.7c1.3,0,2.5-0.1,3.5-1.1c0.5-0.5,0.8-1.4,0.8-2.7v-1.8H624z"/>
		</g>
		<g>
			<path fill="#002C9E" d="M309.6,137.9l-9.6-19.6h-6.9v19.6h-9.6V88.8h19.2c10,0,15.9,6.8,15.9,15c0,6.9-4.2,11.2-9,12.9l11,21.2
				H309.6z M302.2,97.4h-9v13h9c4.2,0,7-2.7,7-6.5C309.1,100.1,306.4,97.4,302.2,97.4z"/>
			<path fill="#002C9E" d="M346.4,137.9v-3.1c-2.4,2.4-4.7,3.4-8.8,3.4c-4.1,0-7-1-9.2-3.2c-1.9-2-3-4.9-3-8.1
				c0-5.7,3.9-10.4,12.3-10.4h8.5v-1.8c0-3.9-1.9-5.7-6.7-5.7c-3.4,0-5,0.8-6.9,3l-5.7-5.6c3.5-3.9,7-5,13-5
				c10.1,0,15.3,4.3,15.3,12.7v23.6H346.4z M346.1,122.7H339c-3.2,0-5,1.5-5,4.1c0,2.5,1.7,4.1,5.2,4.1c2.5,0,4.1-0.2,5.7-1.7
				c1-0.9,1.3-2.3,1.3-4.6V122.7z"/>
			<path fill="#002C9E" d="M364.6,95.8v-7.3h9.2v7.3H364.6z M364.8,137.9V102h9v35.9H364.8z"/>
			<path fill="#002C9E" d="M393.9,137.9c-7.4,0-10.5-5.2-10.5-10.3V88.8h9v38.3c0,2.1,0.9,3.2,3.2,3.2h3.4v7.6H393.9z"/>
			<path fill="#002C9E" d="M443.4,137.9h-20.5V88.8h19.7c9.6,0,15.2,5.4,15.2,13.8c0,5.4-3.6,9-6.1,10.1c3,1.4,6.8,4.5,6.8,11
				C458.4,132.9,452.1,137.9,443.4,137.9z M441.8,97.4h-9.4v11.3h9.4c4.1,0,6.3-2.3,6.3-5.7C448.1,99.6,445.8,97.4,441.8,97.4z
				 M442.4,117.3h-10v12.1h10c4.3,0,6.4-2.8,6.4-6.1C448.8,120,446.7,117.3,442.4,117.3z"/>
			<path fill="#002C9E" d="M485.9,137.9v-3.1c-2.4,2.4-4.7,3.4-8.8,3.4c-4.1,0-7-1-9.2-3.2c-1.9-2-3-4.9-3-8.1
				c0-5.7,3.9-10.4,12.3-10.4h8.5v-1.8c0-3.9-1.9-5.7-6.7-5.7c-3.4,0-5,0.8-6.9,3l-5.7-5.6c3.5-3.9,7-5,13-5
				c10.1,0,15.3,4.3,15.3,12.7v23.6H485.9z M485.7,122.7h-7.1c-3.2,0-5,1.5-5,4.1c0,2.5,1.7,4.1,5.2,4.1c2.5,0,4.1-0.2,5.7-1.7
				c1-0.9,1.3-2.3,1.3-4.6V122.7z"/>
			<path fill="#002C9E" d="M514.4,137.9c-7.4,0-10.5-5.2-10.5-10.3V88.8h9v38.3c0,2.1,0.9,3.2,3.2,3.2h3.4v7.6H514.4z"/>
			<path fill="#002C9E" d="M537.9,137.9c-7.3,0-10.4-5.2-10.4-10.3v-17.8h-3.8V103h3.8V92.4h9V103h6.3v6.8h-6.3v17.2
				c0,2.1,1,3.2,3.1,3.2h3.2v7.6H537.9z"/>
			<path fill="#002C9E" d="M550.8,95.8v-7.3h9.2v7.3H550.8z M551,137.9V102h9v35.9H551z"/>
			<path fill="#002C9E" d="M584.2,138.3c-7.2,0-16.1-3.9-16.1-18.4c0-14.5,8.9-18.3,16.1-18.3c5,0,8.7,1.5,11.9,4.8l-6.1,6.1
				c-1.9-2-3.4-2.8-5.8-2.8c-2.1,0-3.8,0.8-5.1,2.3c-1.4,1.7-2,4.1-2,7.9c0,3.8,0.6,6.3,2,8c1.3,1.6,3,2.3,5.1,2.3
				c2.3,0,3.9-0.8,5.8-2.8l6.1,6C592.9,136.7,589.2,138.3,584.2,138.3z"/>
			<path fill="#002C9E" d="M621.1,137.9v-3.1c-2.4,2.4-4.7,3.4-8.8,3.4c-4.1,0-7-1-9.2-3.2c-1.9-2-3-4.9-3-8.1
				c0-5.7,3.9-10.4,12.3-10.4h8.5v-1.8c0-3.9-1.9-5.7-6.7-5.7c-3.4,0-5,0.8-6.9,3l-5.7-5.6c3.5-3.9,7-5,13-5
				c10.1,0,15.3,4.3,15.3,12.7v23.6H621.1z M620.9,122.7h-7.1c-3.2,0-5,1.5-5,4.1c0,2.5,1.7,4.1,5.2,4.1c2.5,0,4.1-0.2,5.7-1.7
				c1-0.9,1.3-2.3,1.3-4.6V122.7z"/>
		</g>
		<g>
			<path fill="#3398DB" d="M299.6,183.5c-1.9,2.1-4.5,3.2-7.4,3.2c-2.7,0-5.2-1-7-2.9c-2.6-2.6-2.6-5.1-2.6-11.4
				c0-6.4,0-8.9,2.6-11.4c1.9-1.9,4.3-2.9,7-2.9c4.9,0,8.8,3.3,9.6,8.2h-2.1c-0.8-3.9-3.7-6.3-7.5-6.3c-2,0-3.9,0.8-5.3,2.2
				c-2,2-2.2,4.2-2.2,10.2c0,6,0.2,8.2,2.2,10.2c1.4,1.4,3.3,2.2,5.3,2.2c2.2,0,4.4-0.9,5.9-2.7c1.2-1.5,1.7-3.2,1.7-5.6V174h-7.6
				v-1.9h9.7v4.6C301.9,179.6,301.3,181.7,299.6,183.5z"/>
			<path fill="#3398DB" d="M315.4,158.3h2.1v26.3h14.9v1.9h-17.1V158.3z"/>
			<path fill="#3398DB" d="M358.5,183.8c-1.9,1.9-4.3,2.9-7,2.9c-2.7,0-5.2-1-7-2.9c-2.6-2.6-2.6-5.1-2.6-11.4c0-6.4,0-8.9,2.6-11.4
				c1.9-1.9,4.3-2.9,7-2.9c2.7,0,5.2,1,7,2.9c2.6,2.6,2.6,5.1,2.6,11.4C361.1,178.7,361.1,181.3,358.5,183.8z M356.8,162.2
				c-1.4-1.4-3.3-2.2-5.3-2.2s-3.9,0.8-5.3,2.2c-2,2-2.2,4.2-2.2,10.2c0,6,0.2,8.2,2.2,10.2c1.4,1.4,3.3,2.2,5.3,2.2
				s3.9-0.8,5.3-2.2c2-2,2.2-4.2,2.2-10.2C359,166.4,358.8,164.2,356.8,162.2z"/>
			<path fill="#3398DB" d="M385.3,186.5h-10.7v-28.1H385c4.7,0,8.1,2.7,8.1,7.4c0,3-1.7,5.4-4.4,6.3c3,1.1,4.8,3.5,4.8,6.8
				C393.6,183.8,390.2,186.5,385.3,186.5z M384.7,160.2h-8v10.9h8c3.4,0,6.2-1.6,6.2-5.5S388.1,160.2,384.7,160.2z M385.1,173h-8.3
				v11.5h8.3c3.8,0,6.4-2.1,6.4-5.8C391.4,175.2,388.9,173,385.1,173z"/>
			<path fill="#3398DB" d="M421.2,179.6h-13.1l-2.5,6.8h-2.3l10.4-28.1h1.9l10.4,28.1h-2.3L421.2,179.6z M408.8,177.7h11.8
				l-5.9-16.6L408.8,177.7z"/>
			<path fill="#3398DB" d="M436.8,158.3h2.1v26.3h14.9v1.9h-17.1V158.3z"/>
			<path fill="#3398DB" d="M483.5,171.8h12.7v1.9h-12.7v12.8h-2.1v-28.1h17.1v1.9h-14.9V171.8z"/>
			<path fill="#3398DB" d="M524.9,183.8c-1.9,1.9-4.3,2.9-7,2.9s-5.2-1-7-2.9c-2.6-2.6-2.6-5.1-2.6-11.4c0-6.4,0-8.9,2.6-11.4
				c1.9-1.9,4.3-2.9,7-2.9s5.2,1,7,2.9c2.6,2.6,2.6,5.1,2.6,11.4C527.5,178.7,527.5,181.3,524.9,183.8z M523.2,162.2
				c-1.4-1.4-3.3-2.2-5.3-2.2s-3.9,0.8-5.3,2.2c-2,2-2.2,4.2-2.2,10.2c0,6,0.2,8.2,2.2,10.2c1.4,1.4,3.3,2.2,5.3,2.2
				s3.9-0.8,5.3-2.2c2-2,2.2-4.2,2.2-10.2C525.4,166.4,525.2,164.2,523.2,162.2z"/>
			<path fill="#3398DB" d="M550.9,173.5h-7.7v13H541v-28.1h10.7c4.6,0,8.1,2.6,8.1,7.6c0,4.2-2.5,6.9-6.5,7.6l6.8,13h-2.5
				L550.9,173.5z M551.5,160.2h-8.3v11.4h8.3c3.6,0,6.2-1.8,6.2-5.7C557.7,162,555.1,160.2,551.5,160.2z"/>
			<path fill="#3398DB" d="M582.2,186.7c-5.7,0-9.6-3.9-9.6-9.4v-19h2.1v18.7c0,4.7,3,7.7,7.5,7.7c4.5,0,7.5-3.1,7.5-7.7v-18.7h2.1
				v19C591.9,182.8,587.9,186.7,582.2,186.7z"/>
			<path fill="#3398DB" d="M627.6,163.3l-8.5,19.3h-2.1l-8.7-19.3v23.2h-2.1v-28.1h2.1L618,180l9.6-21.7h2.1v28.1h-2.1V163.3z"/>
		</g>
	</g>
</g>
</svg>
